<?xml version="1.0" encoding="utf-8"?>
<!-- Generator: Adobe Illustrator 26.5.0, SVG Export Plug-In . SVG Version: 6.00 Build 0)  -->
<svg version="1.1" id="Capa_1" xmlns="http://www.w3.org/2000/svg" xmlns:xlink="http://www.w3.org/1999/xlink" x="0px" y="0px"
	 viewBox="0 0 512 512" style="enable-background:new 0 0 512 512;" xml:space="preserve">
<style type="text/css">
	.st0{fill:#ECF4E3;}
	.st1{fill:#FFFFFF;}
	.st2{fill:#889B26;}
	.st3{fill:#F6F6F6;}
	.st4{fill:#7F7F7F;}
	.st5{fill-rule:evenodd;clip-rule:evenodd;fill:#509E34;}
	.st6{fill:#262626;}
	.st7{fill:#509E34;}
	.st8{fill:#F1BBB0;}
	.st9{fill-rule:evenodd;clip-rule:evenodd;fill:#F6F6F6;}
</style>
<rect x="-14.4" y="-14.4" width="740.8" height="740.8" fill="#100c0c"/>
<g>
	<path class="st1" d="M86.3,170l53.6,84.9c1.4,2.4,21.9,35.3,26.1,44.7l0.5-0.5c-0.5-10.1-1.2-23.5-1.2-31.5V170H187v160.4h-23.1
		L107,240.1c-2.4-3.8-7.5-12.9-15.5-25.9c-2.1-3.5-4.9-8.5-6.6-12h-0.5c0,8.7,0.9,18.3,0.9,26.1v102.1H62.8V170H86.3z"/>
	<path class="st1" d="M311.1,170v21.2h-80.7v44.9h77.1v20.2h-77.1v52.9h80.7v21.2H207.9V170H311.1z"/>
	<path class="st1" d="M449,170.3v21.2h-46.6v139h-22.6v-139h-47.7v-21.2H449z"/>
	<g>
		<path class="st4" d="M112.2,168.5v5.7h5.2v3.2h-5.2v10.4c0,1.5,0.8,2.6,2.7,2.6c0.8,0,1.5-0.2,2.5-0.7v3.4
			c-1.3,0.5-2.2,0.7-3.7,0.7c-3.4,0-5.3-1.5-5.3-4.8v-11.6h-3.2v-3.2h3.2l0.4-5.7H112.2z"/>
		<path class="st4" d="M123.7,165.3v12.2h0.1c1.4-2.6,3.3-3.8,5.9-3.8c4.2,0,6.8,2.8,6.8,6.5v13.2h-3.8v-11.8c0-2.5-1.2-4.3-3.7-4.3
			c-3.2,0-5.3,3.3-5.3,7.2v8.9h-3.8v-28.1H123.7z"/>
		<path class="st4" d="M143.6,183.8c0.2,4.2,3.3,6.4,6.5,6.4c2.7,0,5.2-1.6,7.1-3.6v4.6c-2.4,1.6-4.9,2.6-7.9,2.6
			c-5.8,0-9.8-4.6-9.8-10.1c0-5.8,4.5-10,9.6-10c4.7,0,8.7,3.3,8.7,9.5v0.5H143.6z M153.4,180.7c-0.4-2.6-2.4-3.8-4.2-3.8
			c-2.6,0-4.2,1.7-5.1,3.8H153.4z"/>
	</g>
</g>
</svg>
