<?xml version="1.0" encoding="UTF-8"?><svg id="Logo_El_Diario" xmlns="http://www.w3.org/2000/svg" viewBox="0 0 512 512"><defs><style>.cls-1{fill:#fff;}.cls-2{fill:#fab937;}.cls-3{fill:#f2f2f2;font-size:122.65px;}.cls-3,.cls-4{font-family:ArialMT, Arial;}.cls-5{fill:#ccc;}.cls-6{fill:#f8b133;}.cls-7{letter-spacing:-.04em;}.cls-4{fill:#b3b3b3;font-size:32.73px;}</style></defs><g id="Blanco"><text class="cls-3" transform="translate(40.84 300.04)"><tspan x="0" y="0">DIARIO</tspan></text><text class="cls-4" transform="translate(49.29 200.22)"><tspan x="0" y="0">E</tspan><tspan class="cls-7" x="21.83" y="0">L</tspan></text><g id="Logo_Ocaso"><path class="cls-1" d="m440.21,310.77h.9c.1,0,.17.08.17.17v4.76c0,.1-.08.17-.17.17h-1.14c-.08,0-.15-.06-.17-.14-.51-2.17-1.77-3.71-4.12-3.71-1.88,0-2.64.49-2.64,1.85,0,3.09,8.99.78,8.99,6.52,0,3.27-2.5,4.34-5.32,4.34-1.43,0-2.87-.59-4.01-1.48-.09-.07-.23-.03-.27.08l-.32.87c-.03.07-.09.11-.16.11h-1.08c-.1,0-.17-.08-.17-.17v-5.22c0-.1.08-.17.17-.17h1.16c.09,0,.16.06.17.15.33,2.64,1.97,4.06,4.78,4.06,1.77,0,2.62-.84,2.62-1.82,0-3.49-8.99-.86-8.99-6.7,0-2.88,2.56-4.11,5-4.11,1.46,0,2.7.65,3.69,1.33.08.06.19.03.24-.05l.52-.79s.09-.08.15-.08Z"/><path class="cls-1" d="m457.38,317.54c0,4.08-2.91,7.2-7.29,7.2s-7.29-3.12-7.29-7.2,2.91-7.22,7.29-7.22,7.29,3.14,7.29,7.22Zm-11.41,0c0,2.93.93,5.6,4.18,5.6s4.06-2.67,4.06-5.6-.87-5.62-4.12-5.62-4.12,2.69-4.12,5.62Z"/><path class="cls-1" d="m394.5,310.32c-4.38,0-7.29,3.14-7.29,7.22s2.91,7.2,7.29,7.2,7.29-3.12,7.29-7.2-2.91-7.22-7.29-7.22Zm.06,12.82c-3.25,0-4.18-2.67-4.18-5.6s.93-5.62,4.12-5.62,4.12,2.69,4.12,5.62-.87,5.6-4.06,5.6Z"/><path class="cls-1" d="m414.74,319.14h-1.38c-.09,0-.16.06-.17.15-.26,2.08-1.36,3.63-3.58,3.63-2.88,0-3.68-2.78-3.68-5.4s.74-5.38,3.68-5.38c2.34,0,3.47,1.73,3.76,3.87.01.09.09.15.17.15h1.15c.1,0,.17-.08.17-.17v-5.31c0-.1-.08-.17-.17-.17h-1.13c-.08,0-.14.05-.17.12l-.27.9c-.04.12-.18.16-.28.08-.9-.77-2.26-1.32-3.48-1.32-4.2,0-6.71,3.16-6.71,7.02,0,4.37,2.22,7.41,6.46,7.41,3.47,0,5.48-1.94,5.78-5.4,0-.1-.07-.19-.17-.19Z"/><path class="cls-1" d="m429.53,322.82c-.98-.02-1.61-.19-1.96-1.11l-4.01-10.87c-.03-.07-.09-.11-.16-.11h-2.62c-.07,0-.14.05-.16.12l-3.81,10.87c-.32.91-.97,1.09-1.94,1.11-.09,0-.17.08-.17.17v1.17c0,.1.08.17.17.17h5.94c.1,0,.17-.08.17-.17v-1.15c0-.1-.08-.17-.17-.17h-1.44c-.39,0-.66-.08-.66-.37,0-.19.04-.31.08-.44l.64-1.96c.02-.07.09-.12.17-.12h4.44c.08,0,.14.05.17.12l.64,1.96c.04.12.08.31.08.5,0,.21-.17.31-.64.31h-1.46c-.1,0-.17.08-.17.17v1.15c0,.1.08.17.17.17h6.71c.1,0,.17-.08.17-.17v-1.17c0-.09-.08-.17-.17-.17Zm-6.24-4.36h-2.95c-.12,0-.2-.12-.17-.23l1.55-4.75h.04l1.69,4.74c.04.11-.04.23-.16.23Z"/><path class="cls-2" d="m358.63,321.3l-.15.35c-.05.11-.17.16-.28.11l-3.22-1.04c-.11-.05-.16-.17-.11-.28l.38-.9c.05-.11.17-.16.28-.11l2.98,1.6c.11.05.16.17.11.28Z"/><path class="cls-2" d="m360.58,318.5l-.27.27c-.08.08-.22.08-.3,0l-4.04-3.6c-.08-.08-.08-.22,0-.3l.69-.69c.08-.08.22-.08.3,0l3.61,4.02c.08.08.08.22,0,.3Z"/><path class="cls-2" d="m363.41,316.69l-.35.15c-.11.05-.23,0-.28-.11l-1.6-2.98c-.05-.11,0-.23.11-.28l.9-.38c.11-.05.23,0,.28.11l1.05,3.22c.05.11,0,.23-.11.28Z"/><path class="cls-2" d="m366.74,316.11h-.38c-.12,0-.21-.1-.21-.21l-.3-5.4c0-.12.1-.21.21-.21h.98c.12,0,.21.1.21.21l-.3,5.4c0,.12-.1.21-.21.21Z"/><path class="cls-2" d="m374.47,321.3l.15.35c.05.11.17.16.28.11l3.22-1.04c.11-.05.16-.17.11-.28l-.38-.9c-.05-.11-.17-.16-.28-.11l-2.98,1.6c-.11.05-.16.17-.11.28Z"/><path class="cls-2" d="m372.52,318.5l.27.27c.08.08.22.08.3,0l4.04-3.6c.08-.08.08-.22,0-.3l-.69-.69c-.08-.08-.22-.08-.3,0l-3.61,4.02c-.08.08-.08.22,0,.3Z"/><path class="cls-2" d="m369.69,316.69l.35.15c.11.05.23,0,.28-.11l1.6-2.98c.05-.11,0-.23-.11-.28l-.9-.38c-.11-.05-.23,0-.28.11l-1.05,3.22c-.05.11,0,.23.11.28Z"/><path class="cls-6" d="m380.82,323.09h-.01,0s-7.84,0-7.84,0c-.73-2.86-3.33-4.97-6.42-4.97s-5.69,2.11-6.42,4.97h-7.63s-.21,0-.21,0c-.12,0-.21.1-.21.21v1.22c0,.12.1.21.21.21h.07s7.56,0,7.56,0h20.56s.34,0,.34,0c.12,0,.21-.1.21-.21v-1.22c0-.12-.1-.21-.21-.21Z"/><path class="cls-5" d="m440.21,310.77h.9c.1,0,.17.08.17.17v4.76c0,.1-.08.17-.17.17h-1.14c-.08,0-.15-.06-.17-.14-.51-2.17-1.77-3.71-4.12-3.71-1.88,0-2.64.49-2.64,1.85,0,3.09,8.99.78,8.99,6.52,0,3.27-2.5,4.34-5.32,4.34-1.43,0-2.87-.59-4.01-1.48-.09-.07-.23-.03-.27.08l-.32.87c-.03.07-.09.11-.16.11h-1.08c-.1,0-.17-.08-.17-.17v-5.22c0-.1.08-.17.17-.17h1.16c.09,0,.16.06.17.15.33,2.64,1.97,4.06,4.78,4.06,1.77,0,2.62-.84,2.62-1.82,0-3.49-8.99-.86-8.99-6.7,0-2.88,2.56-4.11,5-4.11,1.46,0,2.7.65,3.69,1.33.08.06.19.03.24-.05l.52-.79s.09-.08.15-.08Z"/><path class="cls-5" d="m457.38,317.54c0,4.08-2.91,7.2-7.29,7.2s-7.29-3.12-7.29-7.2,2.91-7.22,7.29-7.22,7.29,3.14,7.29,7.22Zm-11.41,0c0,2.93.93,5.6,4.18,5.6s4.06-2.67,4.06-5.6-.87-5.62-4.12-5.62-4.12,2.69-4.12,5.62Z"/><path class="cls-5" d="m394.5,310.32c-4.38,0-7.29,3.14-7.29,7.22s2.91,7.2,7.29,7.2,7.29-3.12,7.29-7.2-2.91-7.22-7.29-7.22Zm.06,12.82c-3.25,0-4.18-2.67-4.18-5.6s.93-5.62,4.12-5.62,4.12,2.69,4.12,5.62-.87,5.6-4.06,5.6Z"/><path class="cls-5" d="m414.74,319.14h-1.38c-.09,0-.16.06-.17.15-.26,2.08-1.36,3.63-3.58,3.63-2.88,0-3.68-2.78-3.68-5.4s.74-5.38,3.68-5.38c2.34,0,3.47,1.73,3.76,3.87.01.09.09.15.17.15h1.15c.1,0,.17-.08.17-.17v-5.31c0-.1-.08-.17-.17-.17h-1.13c-.08,0-.14.05-.17.12l-.27.9c-.04.12-.18.16-.28.08-.9-.77-2.26-1.32-3.48-1.32-4.2,0-6.71,3.16-6.71,7.02,0,4.37,2.22,7.41,6.46,7.41,3.47,0,5.48-1.94,5.78-5.4,0-.1-.07-.19-.17-.19Z"/><path class="cls-5" d="m429.53,322.82c-.98-.02-1.61-.19-1.96-1.11l-4.01-10.87c-.03-.07-.09-.11-.16-.11h-2.62c-.07,0-.14.05-.16.12l-3.81,10.87c-.32.91-.97,1.09-1.94,1.11-.09,0-.17.08-.17.17v1.17c0,.1.08.17.17.17h5.94c.1,0,.17-.08.17-.17v-1.15c0-.1-.08-.17-.17-.17h-1.44c-.39,0-.66-.08-.66-.37,0-.19.04-.31.08-.44l.64-1.96c.02-.07.09-.12.17-.12h4.44c.08,0,.14.05.17.12l.64,1.96c.04.12.08.31.08.5,0,.21-.17.31-.64.31h-1.46c-.1,0-.17.08-.17.17v1.15c0,.1.08.17.17.17h6.71c.1,0,.17-.08.17-.17v-1.17c0-.09-.08-.17-.17-.17Zm-6.24-4.36h-2.95c-.12,0-.2-.12-.17-.23l1.55-4.75h.04l1.69,4.74c.04.11-.04.23-.16.23Z"/><path class="cls-2" d="m358.63,321.3l-.15.35c-.05.11-.17.16-.28.11l-3.22-1.04c-.11-.05-.16-.17-.11-.28l.38-.9c.05-.11.17-.16.28-.11l2.98,1.6c.11.05.16.17.11.28Z"/><path class="cls-2" d="m360.58,318.5l-.27.27c-.08.08-.22.08-.3,0l-4.04-3.6c-.08-.08-.08-.22,0-.3l.69-.69c.08-.08.22-.08.3,0l3.61,4.02c.08.08.08.22,0,.3Z"/><path class="cls-2" d="m363.41,316.69l-.35.15c-.11.05-.23,0-.28-.11l-1.6-2.98c-.05-.11,0-.23.11-.28l.9-.38c.11-.05.23,0,.28.11l1.05,3.22c.05.11,0,.23-.11.28Z"/><path class="cls-2" d="m366.74,316.11h-.38c-.12,0-.21-.1-.21-.21l-.3-5.4c0-.12.1-.21.21-.21h.98c.12,0,.21.1.21.21l-.3,5.4c0,.12-.1.21-.21.21Z"/><path class="cls-2" d="m374.47,321.3l.15.35c.05.11.17.16.28.11l3.22-1.04c.11-.05.16-.17.11-.28l-.38-.9c-.05-.11-.17-.16-.28-.11l-2.98,1.6c-.11.05-.16.17-.11.28Z"/><path class="cls-2" d="m372.52,318.5l.27.27c.08.08.22.08.3,0l4.04-3.6c.08-.08.08-.22,0-.3l-.69-.69c-.08-.08-.22-.08-.3,0l-3.61,4.02c-.08.08-.08.22,0,.3Z"/><path class="cls-2" d="m369.69,316.69l.35.15c.11.05.23,0,.28-.11l1.6-2.98c.05-.11,0-.23-.11-.28l-.9-.38c-.11-.05-.23,0-.28.11l-1.05,3.22c-.05.11,0,.23.11.28Z"/><path class="cls-6" d="m380.82,323.09h-.01,0s-7.84,0-7.84,0c-.73-2.86-3.33-4.97-6.42-4.97s-5.69,2.11-6.42,4.97h-7.63s-.21,0-.21,0c-.12,0-.21.1-.21.21v1.22c0,.12.1.21.21.21h.07s7.56,0,7.56,0h20.56s.34,0,.34,0c.12,0,.21-.1.21-.21v-1.22c0-.12-.1-.21-.21-.21Z"/></g></g></svg>