<?xml version="1.0"?>
<svg xmlns="http://www.w3.org/2000/svg" id="Icons" viewBox="0 0 74 74" width="512" height="512"><path d="M58.013,70a1,1,0,0,1-.584-.188L37,55.123,16.571,69.812a1,1,0,0,1-1.534-1.124l7.8-23.75L2.416,30.258A1,1,0,0,1,3,28.446H28.25l7.8-23.758a1,1,0,0,1,1.9,0l7.8,23.758H71a1,1,0,0,1,.584,1.812L51.166,44.938l7.8,23.75A1,1,0,0,1,58.013,70ZM37,52.892a1,1,0,0,1,.584.188L56.106,66.4,49.037,44.866a1,1,0,0,1,.366-1.124L67.9,30.446H45.026a1,1,0,0,1-.95-.688L37,8.206,29.924,29.758a1,1,0,0,1-.95.688H6.1L24.6,43.742a1,1,0,0,1,.366,1.124L17.894,66.4,36.416,53.08A1,1,0,0,1,37,52.892Z"/></svg>
