<?xml version="1.0" encoding="iso-8859-1"?>
<!-- Generator: Adobe Illustrator 19.0.0, SVG Export Plug-In . SVG Version: 6.00 Build 0)  -->
<svg version="1.1" id="Layer_1" xmlns="http://www.w3.org/2000/svg" xmlns:xlink="http://www.w3.org/1999/xlink" x="0px" y="0px"
	 viewBox="0 0 486.8 486.8" style="enable-background:new 0 0 486.8 486.8;" xml:space="preserve">
<g>
	<g>
		<path d="M316.14,90c-29.7,0-53.9,24.2-53.9,53.9s24.2,53.9,53.9,53.9c29.7,0,53.9-24.2,53.9-53.9S345.84,90,316.14,90z
			 M316.14,185.9c-23.1,0-41.9-18.8-41.9-41.9c0-23.1,18.8-41.9,41.9-41.9c23.1,0,41.9,18.8,41.9,41.9
			C358.04,167.1,339.24,185.9,316.14,185.9z"/>
	</g>
</g>
<g>
	<g>
		<path d="M442.34,116.4h-13.3c-2.8-11.6-7.4-22.6-13.6-32.8l9.4-9.4c6.9-6.9,6.9-18.2,0-25.1l-13.9-13.9c-3.3-3.3-7.8-5.2-12.5-5.2
			s-9.2,1.8-12.5,5.2l-9.4,9.4c-10.2-6.2-21.2-10.8-32.8-13.6V17.7c0-9.8-7.9-17.7-17.7-17.7h-19.7c-9.8,0-17.7,7.9-17.7,17.7V31
			c-11.6,2.8-22.6,7.4-32.8,13.6l-9.4-9.4c-3.3-3.3-7.8-5.2-12.5-5.2c-4.7,0-9.2,1.8-12.5,5.2l-14.1,13.9c-6.9,6.9-6.9,18.1,0,25.1
			l9.4,9.4c-6.2,10.2-10.8,21.2-13.6,32.8h-13.3c-9.8,0-17.7,7.9-17.7,17.7v19.7c0,9.8,7.9,17.7,17.7,17.7h13.3
			c2.8,11.6,7.4,22.6,13.6,32.8l-9.4,9.4c-6.9,6.9-6.9,18.2,0,25.1l13.9,13.9c3.3,3.3,7.8,5.2,12.5,5.2c4.7,0,9.2-1.8,12.5-5.2
			l9.4-9.4c10.2,6.2,21.2,10.8,32.8,13.6v13.3c0,9.8,7.9,17.7,17.7,17.7h19.7c9.8,0,17.7-7.9,17.7-17.7v-13.3
			c11.6-2.8,22.6-7.4,32.8-13.6l9.4,9.4c3.3,3.3,7.8,5.2,12.5,5.2s9.2-1.8,12.5-5.2l13.9-13.9c6.9-6.9,6.9-18.1,0-25.1l-9.4-9.4
			c6.2-10.2,10.8-21.2,13.6-32.8h13.5c9.8,0,17.7-7.9,17.7-17.7v-19.7C460.04,124.3,452.14,116.4,442.34,116.4z M448.04,153.8
			c0,3.2-2.6,5.7-5.7,5.7h-18.1c-2.9,0-5.3,2-5.9,4.8c-2.7,13.4-7.9,26-15.5,37.5c-1.6,2.4-1.3,5.6,0.7,7.6l12.8,12.8
			c2.2,2.2,2.2,5.9,0,8.1l-13.9,13.9c-1.1,1.1-2.5,1.7-4,1.7s-3-0.6-4-1.7l-12.9-12.8c-2-2-5.2-2.3-7.6-0.7
			c-11.4,7.6-24,12.9-37.5,15.5c-2.8,0.6-4.8,3-4.8,5.9v18.1c0,3.2-2.6,5.7-5.7,5.7h-19.7c-3.2,0-5.7-2.6-5.7-5.7v-18.1
			c0-2.9-2-5.3-4.8-5.9c-13.4-2.7-26-7.9-37.5-15.5c-1-0.7-2.2-1-3.3-1c-1.5,0-3.1,0.6-4.2,1.8l-12.8,12.8c-1.1,1.1-2.5,1.7-4,1.7
			s-3-0.6-4-1.7l-13.9-13.9c-2.2-2.2-2.2-5.9,0-8.1l12.8-12.8c2-2,2.3-5.2,0.7-7.6c-7.6-11.4-12.9-24-15.5-37.5
			c-0.6-2.8-3-4.8-5.9-4.8h-18.1c-3.2,0-5.7-2.6-5.7-5.7v-19.7c0-3.2,2.6-5.7,5.7-5.7h18.1c2.9,0,5.3-2,5.9-4.8
			c2.7-13.4,7.9-26,15.5-37.5c1.6-2.4,1.3-5.6-0.7-7.6l-12.8-12.8c-2.2-2.2-2.2-5.9,0-8.1l13.9-13.9c1.1-1.1,2.5-1.7,4-1.7
			s3,0.6,4,1.7l12.8,12.8c2,2,5.2,2.3,7.6,0.7c11.4-7.6,24-12.9,37.5-15.5c2.8-0.6,4.8-3,4.8-5.9V17.7c0-3.2,2.6-5.7,5.7-5.7h19.7
			c3.2,0,5.7,2.6,5.7,5.7v18.1c0,2.9,2,5.3,4.8,5.9c13.4,2.7,26,7.9,37.5,15.5c2.4,1.6,5.6,1.3,7.6-0.7l12.7-12.8
			c1.1-1.1,2.5-1.7,4-1.7s3,0.6,4,1.7l13.9,13.9c2.2,2.2,2.2,5.9,0,8.1l-12.8,12.8c-2,2-2.3,5.2-0.7,7.6c7.6,11.4,12.9,24,15.5,37.5
			c0.6,2.8,3,4.8,5.9,4.8h18.2c3.2,0,5.7,2.6,5.7,5.7V153.8z"/>
	</g>
</g>
<g>
	<g>
		<path d="M376.84,278.8c-3.1-1-6.5,0.7-7.6,3.8c-8,24.4-22.4,46.5-41.4,64c-1.2,1.1-1.9,2.7-1.9,4.4v123.7h-173.7V435
			c0-1.7-0.8-3.4-2.1-4.5c-1.3-1.1-3.1-1.6-4.8-1.4l-44.9,6.7c-14.7-0.2-26.6-12.3-26.6-27v-58.1c0-3.3-2.7-6-6-6h-15
			c-6.2,0-10.8-1.9-12.9-5.3c-2.1-3.4-1.6-8.4,1.3-13.9l32-61.1c0.5-0.9,0.7-1.8,0.7-2.8v-26.1c0-58.5,34.3-112.2,87.4-136.8
			c5-2.4,10.3-4.5,15.5-6.3c3.1-1.1,4.8-4.5,3.7-7.6c-1.1-3.1-4.5-4.8-7.6-3.7c-5.7,2-11.3,4.3-16.7,6.8c-27.8,12.9-51.3,33.3-68,59
			c-17.2,26.4-26.3,57.1-26.3,88.7v24.6L30.64,320c-4.8,9.3-5.2,18.6-0.9,25.7c4.3,7.2,12.6,11.1,23.2,11.1h9v52.1
			c0,21.5,17.5,39,39,39c0.3,0,0.6,0,0.9-0.1l38.4-5.7v38.7c0,3.3,2.7,6,6,6h185.7c3.3,0,6-2.7,6-6V353.7
			c19.6-18.6,34.4-41.8,42.8-67.3C381.74,283.3,380.04,279.9,376.84,278.8z"/>
	</g>
</g>
<g>
</g>
<g>
</g>
<g>
</g>
<g>
</g>
<g>
</g>
<g>
</g>
<g>
</g>
<g>
</g>
<g>
</g>
<g>
</g>
<g>
</g>
<g>
</g>
<g>
</g>
<g>
</g>
<g>
</g>
</svg>
