<svg xmlns="http://www.w3.org/2000/svg" x="0px" y="0px" viewBox="0 0 240 57">
    <path fill="#509E2F" fill-rule="evenodd" d="M165.836 16.732c2.372 0 4.22.797 5.511 2.84h.07v-2.424h4.463v16.1c0 4.756-1.882 9.247-9.07 9.412l-.413.004c-1.85 0-3.977-.278-6.207-1.21l.381-3.947c1.43.761 3.766 1.557 5.232 1.557 5.159 0 5.405-3.843 5.405-6.925h-.07c-.836 1.458-2.786 2.724-5.243 2.83l-.338.008c-5.3 0-7.32-4.222-7.32-9 0-4.294 2.23-9.245 7.6-9.245zM64.081 14.25l.826 10.147c1.38-.165 3.645.168 4.752 2.662 1.196-1.634 5.635-2.68 6.27 3.103l.03.335v3.492h-3.094v-3.547c-.03-1.873-2.086-1.938-2.254-.242l-.01.188v4.377h-2.932l-.272-5.212c-.224-1.606-2.71-2.547-2.101-.277l.121 1.025c.321 2.994.864 11.162-3.327 11.564-4.457-.22-4.182-11.382-.149-15.811l.205-.216-.912-11.504 2.847-.084zM87.95 31.3c-2.046-5.49.608-10.095 3.262-9.674 4.336.72 3.285 6.264.66 9.758.445.664 1.521 1.082 2.737.525-2.846-8.511 8.979-8.205 6.134-1.245 2.426-.642 7.147-4.902 10.229-5.021l.323.003c5.628-.112 4.301 9.158-3.259 9.816l-.359.025v-3.103l.232-.066c.686-.207 2.298-.787 3.193-1.712.64-.697.121-2.611-1.788-1.56l-.203.12-6.904 4.27c-1.203.68-3.26 1.052-4.253.277-2.068 1.634-6.823 2.31-8.482 0l-.142-.22-3.146 2.189c.277 2.19-.225 5.851-3.929 5.57-3.927-.324-4.107-5.638.424-7.568l.272-.11v-.97c-2.461 1.775-6.467 2.054-6.353-2.354.482-2.944 3.606-5.567 8.45-5.94l.42-.026v3.08c-3.927.25-5.944 1.913-5.473 3.437.373.4 2.34-.628 3.183-2.618l.104-.265h2.902v4.02l.994-.341c.28-.1.565-.207.772-.297zm-5.14 5.412c-.345-.024-.647.288-.68.7-.028.408.23.763.576.785.342.024.648-.285.672-.7.028-.407-.226-.762-.567-.785zM62.419 31.06c-.301-.01-.59 1.367-.65 3.08l-.012.556c-.004 1.444.184 2.546.448 2.555.282.013.563-1.225.642-2.809l.011-.266c.058-1.708-.137-3.1-.44-3.116zm154.464-14.05c5.336 0 9.417 3.566 9.417 9.45 0 5.017-3.307 9.038-9.04 9.206l-.377.006c-5.926 0-9.379-4.086-9.379-9.211 0-5.885 4.081-9.451 9.38-9.451zm-34.312.277l.003 10.131.01.42c.066 1.976.477 4.093 3.023 4.093 3.283 0 4.07-3.426 4.113-5.714l.002-8.93h4.67v17.83h-4.429v-2.425h-.069c-1.354 1.642-3.24 2.722-5.51 2.83l-.382.01c-4.255 0-6.102-2.978-6.102-6.993V17.287h4.67zM1.366 29.139c-4.443-8.425 2.97-12.45 7.708-10.59l.193.08v3.495c-3.729-1.692-6.659.915-5.692 4.017 4.916-3.684 8.32 5.41 1.187 5.02.86 1.523 3.151 1.305 5.168.028-2.185-13.224 10.054-12.894 4.171.334-.557.718 1.26.927 2.434.056l.137-.11v2.664c-2.046 1.383-4.229.69-5.084-.226C6.755 37.18.29 35.184 1.366 29.139zm29.287 4.242c-14.39 9.278-18.379-16.176-2.587-14.478l.485.06v3.103c-11.716-2.827-8.51 15.53.328 8.651-.66-3.104 3.264-4.24 3.4-2.05l-.01.317c-.016 1.05.158 2.46 1.313 2.508 1.21.084 2.012-1.355.662-1.52-5.28-1.663.524-9.652 3.726-3.219 1.328 0 2.519.414 3.29 1.526.08-.519 1.077-1.137 1.93-1.03l.17.032v2.774c-.827.05-1.48.416-1.545 1.251l-.004.186v2.775h-2.429v-2.663c0-.75-.525-1.246-1.632-1.216 0 2.243-3.395 5.263-7.097 2.993zm203.384-16.649c2.196 0 3.625.347 5.091.659l-.313 3.496c-1.432-.484-2.477-.761-4.186-.761-1.255 0-2.755.45-2.755 1.973 0 2.839 8.126 1.04 8.126 7.478 0 4.049-3.545 5.73-7.24 5.814l-.292.004c-1.778 0-3.592-.313-5.301-.763l.279-3.81c1.463.729 3 1.179 4.603 1.179 1.186 0 3.067-.45 3.067-2.181 0-3.497-8.123-1.107-8.123-7.547 0-3.844 3.38-5.54 7.044-5.54zm-101.67 0c2.196 0 3.625.347 5.09.659l-.313 3.496c-1.428-.484-2.476-.761-4.185-.761-1.255 0-2.756.45-2.756 1.973 0 2.839 8.126 1.04 8.126 7.478 0 4.049-3.542 5.73-7.24 5.814l-.292.004c-1.778 0-3.592-.313-5.3-.763l.28-3.81c1.464.729 2.998 1.179 4.602 1.179 1.185 0 3.07-.45 3.07-2.181 0-3.497-8.125-1.107-8.125-7.547 0-3.844 3.382-5.54 7.043-5.54zm16.074 0c6.41 0 8.394 4.203 8.534 10.076l.008.692h-12.415c.21 2.872 2.233 4.502 5.127 4.502 2.267 0 4.22-.833 5.963-1.802v3.775c-1.595.873-3.403 1.352-5.68 1.411l-.494.007c-5.926 0-9.377-3.391-9.377-9.244 0-5.158 2.752-9.417 8.334-9.417zM48.166 21.291l-.496 6.435h.827c4.142-8.487 12.378-.505 3.48 3.384 1.097 1.481 2.686 1.006 4.036.115l.332-.23v3.108c-1.769 1.77-6.33 1.69-7.71-2.362-.418-1.1-1.085-.936-1.13-.583l-.002 3.414h-2.68v-4.436l-.633-.029V27.39h.91l.388-6.072 2.678-.027zm157.625-4.559c.453 0 .941 0 1.429.14v4.673c-.372-.214-1.074-.349-1.813-.376l-.279-.005c-3.616 0-3.793 4.261-3.802 6.882v6.931h-4.671v-17.83h4.149V21.2h.068c.212-1.663 2.13-4.468 4.92-4.468zm11.091 3.878c-3.032 0-4.497 2.633-4.497 5.298 0 2.942.941 6.162 4.497 6.162 3.594 0 4.533-3.185 4.533-6.162 0-2.735-1.464-5.298-4.533-5.298zm-49.58-.276c-3.173 0-4.185 2.908-4.185 5.643 0 2.423 1.29 5.4 3.976 5.4 2.93 0 4.115-2.527 4.115-5.504 0-3.048-1.186-5.539-3.906-5.539zM97.838 28.15c-.398 0-.72.493-.72 1.1 0 .605.322 1.097.72 1.097.4 0 .727-.492.727-1.097 0-.607-.328-1.1-.727-1.1zm-92.355-.446c-.379 0-.683.306-.683.687 0 .376.304.687.683.687.377 0 .681-.311.681-.687 0-.381-.304-.687-.681-.687zm7.404-2.26c-.302-.04-.643.741-.766 1.741-.124 1 .024 1.84.322 1.875.299.037.641-.74.767-1.738.119-1.002-.024-1.842-.323-1.877zm39.89 1.33c-.232-.165-.688.093-1.023.572-.33.483-.417 1.001-.188 1.16.23.163.686-.094 1.024-.573.331-.479.415-.997.186-1.16zm38.008-1.783c-.287-.043-.626.69-.761 1.635-.131.942-.003 1.738.28 1.781.293.039.633-.69.766-1.636.131-.944.004-1.742-.285-1.78zm-55.744 1.76c-.273 0-.496.224-.496.5 0 .281.223.504.496.504.283 0 .504-.223.504-.504 0-.276-.22-.5-.504-.5zm71.917-6.792l1.546 2.58-5.94 3.829-1.879-2.328 6.273-4.08zm41.759.167c-2.615 0-3.939 1.8-4.149 4.189h7.952c-.136-2.17-1.113-4.05-3.529-4.182l-.274-.007z"/>
</svg>
