<?xml version="1.0" encoding="utf-8"?>
<!-- Generator: Adobe Illustrator 25.3.1, SVG Export Plug-In . SVG Version: 6.00 Build 0)  -->
<svg version="1.1" id="Capa_1" xmlns="http://www.w3.org/2000/svg" xmlns:xlink="http://www.w3.org/1999/xlink" x="0px" y="0px"
	 viewBox="0 0 940 940" style="enable-background:new 0 0 940 940;" xml:space="preserve">
<style type="text/css">
	.st0{fill:#23211E;}
	.st1{fill:#FFFFFF;}
	.st2{fill:#212121;}
	.st3{fill:#FFC000;}
	.st4{fill:#BF9000;}
	.st5{fill:#7F7F7F;}
	.st6{fill:#F2F2F2;}
	.st7{fill:#FF7F31;}
</style>
<g>
	<g>
		<rect x="433.2" y="123" class="st3" width="10.5" height="503.2"/>
	</g>
	<g>
		<polygon class="st3" points="86.1,817 81.2,807.8 436,618.1 440.9,627.3 		"/>
	</g>
	<g>
		<rect x="438.4" y="617.4" class="st3" width="420.4" height="10.5"/>
	</g>
	<g>
		<g>
			<path class="st6" d="M504,479l0.9,5.6c-1.8,0.4-3.4,0.6-4.8,0.6c-2.3,0-4.1-0.4-5.4-1.1c-1.3-0.7-2.2-1.7-2.7-2.9
				c-0.5-1.2-0.8-3.7-0.8-7.5v-21.6h-4.7v-5h4.7v-9.3l6.3-3.8v13.1h6.4v5h-6.4v22c0,1.8,0.1,3,0.3,3.5c0.2,0.5,0.6,0.9,1.1,1.2
				s1.2,0.5,2.2,0.5C501.9,479.2,502.9,479.1,504,479z"/>
			<path class="st6" d="M510.4,484.7v-51.8h6.4v18.6c3-3.4,6.7-5.2,11.2-5.2c2.8,0,5.2,0.6,7.2,1.6c2.1,1.1,3.5,2.6,4.4,4.5
				c0.9,1.9,1.3,4.7,1.3,8.4v23.8h-6.4v-23.8c0-3.2-0.7-5.5-2.1-6.9c-1.4-1.4-3.3-2.2-5.9-2.2c-1.9,0-3.7,0.5-5.3,1.5
				c-1.7,1-2.8,2.3-3.6,4c-0.7,1.7-1.1,4-1.1,6.9v20.5H510.4z"/>
			<path class="st6" d="M576.9,472.6l6.6,0.8c-1,3.8-3,6.8-5.8,8.9s-6.4,3.2-10.7,3.2c-5.5,0-9.8-1.7-13.1-5.1
				c-3.2-3.4-4.8-8.1-4.8-14.2c0-6.3,1.6-11.2,4.9-14.7c3.3-3.5,7.5-5.2,12.7-5.2c5,0,9.1,1.7,12.3,5.1c3.2,3.4,4.8,8.2,4.8,14.4
				c0,0.4,0,0.9,0,1.7h-28c0.2,4.1,1.4,7.3,3.5,9.5c2.1,2.2,4.7,3.3,7.9,3.3c2.3,0,4.3-0.6,6-1.8C574.7,477.2,576,475.3,576.9,472.6
				z M556,462.3h21c-0.3-3.2-1.1-5.5-2.4-7.1c-2-2.5-4.7-3.7-7.9-3.7c-2.9,0-5.4,1-7.4,2.9S556.3,459,556,462.3z"/>
		</g>
		<g>
			<path class="st6" d="M501.3,530L487,492.5h6.7l8.1,22.5c0.9,2.4,1.7,5,2.4,7.6c0.6-2,1.4-4.4,2.4-7.1l8.3-22.9h6.5L507.2,530
				H501.3z"/>
			<path class="st6" d="M549.4,525.4c-2.4,2-4.6,3.4-6.8,4.2c-2.2,0.8-4.5,1.2-7,1.2c-4.1,0-7.3-1-9.5-3c-2.2-2-3.3-4.6-3.3-7.7
				c0-1.8,0.4-3.5,1.3-5c0.8-1.5,1.9-2.7,3.3-3.7c1.4-0.9,2.9-1.6,4.6-2.1c1.2-0.3,3.1-0.6,5.7-1c5.1-0.6,8.9-1.3,11.4-2.2
				c0-0.9,0-1.4,0-1.7c0-2.6-0.6-4.4-1.8-5.5c-1.6-1.4-4-2.2-7.2-2.2c-3,0-5.2,0.5-6.6,1.6c-1.4,1-2.5,2.9-3.2,5.6l-6.2-0.8
				c0.6-2.7,1.5-4.8,2.8-6.5s3.2-2.9,5.6-3.8c2.5-0.9,5.3-1.3,8.5-1.3c3.2,0,5.8,0.4,7.8,1.1s3.5,1.7,4.4,2.8c0.9,1.1,1.6,2.6,2,4.3
				c0.2,1.1,0.3,3,0.3,5.9v8.5c0,5.9,0.1,9.7,0.4,11.2c0.3,1.6,0.8,3.1,1.6,4.5h-6.6C550,528.7,549.6,527.2,549.4,525.4z
				 M548.8,511.2c-2.3,0.9-5.8,1.7-10.4,2.4c-2.6,0.4-4.5,0.8-5.6,1.3s-1.9,1.2-2.5,2.1s-0.9,1.9-0.9,3c0,1.7,0.6,3.1,1.9,4.2
				c1.3,1.1,3.2,1.7,5.6,1.7c2.5,0,4.6-0.5,6.5-1.6c1.9-1.1,3.3-2.5,4.2-4.4c0.7-1.4,1-3.6,1-6.4V511.2z"/>
			<path class="st6" d="M564.1,530.1v-50.4h6.4v50.4H564.1z"/>
			<path class="st6" d="M607.7,530v-5.5c-2.9,4.2-6.9,6.4-11.9,6.4c-2.2,0-4.3-0.4-6.2-1.3c-1.9-0.8-3.3-1.9-4.3-3.2
				c-0.9-1.3-1.6-2.9-2-4.7c-0.3-1.2-0.4-3.2-0.4-5.9v-23.3h6.4v20.8c0,3.3,0.1,5.6,0.4,6.7c0.4,1.7,1.2,3,2.5,3.9
				c1.3,1,2.9,1.4,4.8,1.4s3.7-0.5,5.4-1.5c1.7-1,2.9-2.3,3.6-4c0.7-1.7,1-4.1,1-7.3v-20.1h6.4V530H607.7z"/>
			<path class="st6" d="M649,517.9l6.6,0.8c-1,3.8-3,6.8-5.8,8.9s-6.4,3.2-10.7,3.2c-5.5,0-9.8-1.7-13.1-5.1
				c-3.2-3.4-4.8-8.1-4.8-14.2c0-6.3,1.6-11.2,4.9-14.7c3.3-3.5,7.5-5.2,12.7-5.2c5,0,9.1,1.7,12.3,5.1c3.2,3.4,4.8,8.2,4.8,14.4
				c0,0.4,0,0.9,0,1.7h-28c0.2,4.1,1.4,7.3,3.5,9.5s4.7,3.3,7.9,3.3c2.3,0,4.3-0.6,6-1.8C646.7,522.6,648,520.6,649,517.9z
				 M628.1,507.6h21c-0.3-3.2-1.1-5.5-2.4-7.1c-2-2.5-4.7-3.7-7.9-3.7c-2.9,0-5.4,1-7.4,2.9S628.3,504.4,628.1,507.6z"/>
			<path class="st6" d="M660.8,518.8l6.3-1c0.4,2.5,1.3,4.5,3,5.8c1.6,1.3,3.9,2,6.8,2c2.9,0,5.1-0.6,6.5-1.8
				c1.4-1.2,2.1-2.6,2.1-4.2c0-1.4-0.6-2.6-1.9-3.4c-0.9-0.6-3-1.3-6.5-2.2c-4.7-1.2-7.9-2.2-9.7-3.1c-1.8-0.9-3.2-2.1-4.1-3.6
				c-0.9-1.5-1.4-3.2-1.4-5c0-1.7,0.4-3.2,1.2-4.6c0.8-1.4,1.8-2.6,3.1-3.6c1-0.7,2.3-1.3,4-1.9s3.5-0.8,5.5-0.8
				c2.9,0,5.5,0.4,7.8,1.3c2.2,0.8,3.9,2,4.9,3.4s1.8,3.4,2.2,5.8l-6.2,0.8c-0.3-1.9-1.1-3.4-2.5-4.5c-1.4-1.1-3.3-1.6-5.7-1.6
				c-2.9,0-5,0.5-6.3,1.4c-1.2,1-1.9,2.1-1.9,3.4c0,0.8,0.3,1.6,0.8,2.2c0.5,0.7,1.3,1.2,2.4,1.7c0.6,0.2,2.5,0.8,5.6,1.6
				c4.5,1.2,7.6,2.2,9.4,3c1.8,0.8,3.2,1.9,4.2,3.3s1.5,3.3,1.5,5.4c0,2.1-0.6,4.1-1.9,6c-1.2,1.9-3,3.3-5.4,4.3
				c-2.3,1-5,1.5-7.9,1.5c-4.9,0-8.6-1-11.2-3C663.2,525.8,661.6,522.8,660.8,518.8z"/>
		</g>
		<g>
			<path class="st6" d="M516.8,561.6l6.3,0.8c-0.7,4.3-2.4,7.7-5.3,10.1c-2.8,2.4-6.3,3.7-10.4,3.7c-5.1,0-9.3-1.7-12.4-5
				c-3.1-3.4-4.7-8.2-4.7-14.4c0-4.1,0.7-7.6,2-10.6s3.4-5.3,6.1-6.8c2.7-1.5,5.7-2.3,9-2.3c4.1,0,7.4,1,10,3.1c2.6,2.1,4.3,5,5,8.8
				l-6.2,1c-0.6-2.5-1.6-4.4-3.1-5.7c-1.5-1.3-3.3-1.9-5.4-1.9c-3.2,0-5.8,1.1-7.8,3.4c-2,2.3-3,5.9-3,10.9c0,5,1,8.7,2.9,11
				c1.9,2.3,4.5,3.4,7.6,3.4c2.5,0,4.6-0.8,6.3-2.3C515.3,567.2,516.4,564.8,516.8,561.6z"/>
			<path class="st6" d="M526.1,556.6c0-7,1.9-12.1,5.8-15.5c3.2-2.8,7.2-4.2,11.8-4.2c5.2,0,9.4,1.7,12.7,5.1
				c3.3,3.4,4.9,8.1,4.9,14c0,4.8-0.7,8.6-2.2,11.4c-1.5,2.8-3.6,4.9-6.3,6.5c-2.8,1.5-5.8,2.3-9.1,2.3c-5.3,0-9.5-1.7-12.7-5.1
				C527.8,567.8,526.1,562.9,526.1,556.6z M532.7,556.6c0,4.8,1,8.4,3.1,10.8c2.1,2.4,4.7,3.6,7.9,3.6c3.2,0,5.8-1.2,7.9-3.6
				s3.1-6.1,3.1-11c0-4.6-1.1-8.2-3.2-10.6c-2.1-2.4-4.7-3.6-7.9-3.6c-3.2,0-5.8,1.2-7.9,3.6S532.7,551.8,532.7,556.6z"/>
			<path class="st6" d="M568.6,575.4v-37.6h5.7v5.7c1.5-2.7,2.8-4.4,4.1-5.3c1.2-0.8,2.6-1.3,4.1-1.3c2.1,0,4.3,0.7,6.5,2.1
				l-2.2,5.9c-1.6-0.9-3.1-1.4-4.7-1.4c-1.4,0-2.6,0.4-3.7,1.3s-1.9,2-2.4,3.5c-0.7,2.3-1.1,4.7-1.1,7.4v19.7H568.6z"/>
			<path class="st6" d="M592.8,575.4v-37.6h5.7v5.3c2.8-4.1,6.7-6.2,12-6.2c2.3,0,4.3,0.4,6.2,1.2c1.9,0.8,3.3,1.9,4.3,3.2
				c0.9,1.3,1.6,2.9,2,4.7c0.2,1.2,0.4,3.2,0.4,6.2v23.1h-6.4v-22.8c0-2.6-0.2-4.5-0.7-5.8s-1.4-2.3-2.6-3.1
				c-1.3-0.8-2.7-1.1-4.4-1.1c-2.7,0-5.1,0.9-7,2.6s-3,5-3,9.8v20.5H592.8z"/>
			<path class="st6" d="M658.6,563.3l6.6,0.8c-1,3.8-3,6.8-5.8,8.9s-6.4,3.2-10.7,3.2c-5.5,0-9.8-1.7-13.1-5.1
				c-3.2-3.4-4.8-8.1-4.8-14.2c0-6.3,1.6-11.2,4.9-14.7c3.3-3.5,7.5-5.2,12.7-5.2c5,0,9.1,1.7,12.3,5.1s4.8,8.2,4.8,14.4
				c0,0.4,0,0.9,0,1.7h-28c0.2,4.1,1.4,7.3,3.5,9.5c2.1,2.2,4.7,3.3,7.9,3.3c2.3,0,4.3-0.6,6-1.8C656.3,567.9,657.6,566,658.6,563.3
				z M637.7,553h21c-0.3-3.2-1.1-5.5-2.4-7.1c-2-2.5-4.7-3.7-7.9-3.7c-2.9,0-5.4,1-7.4,2.9C639,547.1,637.9,549.7,637.7,553z"/>
			<path class="st6" d="M673,575.4v-37.6h5.7v5.7c1.5-2.7,2.8-4.4,4.1-5.3c1.2-0.8,2.6-1.3,4.1-1.3c2.1,0,4.3,0.7,6.5,2.1l-2.2,5.9
				c-1.6-0.9-3.1-1.4-4.7-1.4c-1.4,0-2.6,0.4-3.7,1.3s-1.9,2-2.4,3.5c-0.7,2.3-1.1,4.7-1.1,7.4v19.7H673z"/>
		</g>
	</g>
</g>
</svg>
